ISO-10303-21;
HEADER;
/* Generated by software containing ST-Developer
 * from STEP Tools, Inc. (www.steptools.com) 
 */
/* OPTION: using custom renumber hook */

FILE_DESCRIPTION(
/* description */ ('STEP AP242 Edition 2',
'CAx-IF Rec.Pracs.---Representation and Presentation of Product Manufa
cturing Information (PMI)---4.0---2014-10-13',
'CAx-IF Rec.Pracs.---3D Tessellated Geometry---0.4---2014-09-14','2;1',
'CAx-IF Rec.Pracs.---User Defined Attributes---1.5---2016-08-15'),
/* implementation_level */ '2;1');

FILE_NAME(
/* name */ '6983cb58b355b46a75fef026',
/* time_stamp */ '2026-02-04T22:42:32Z',
/* author */ (''),
/* organization */ (''),
/* preprocessor_version */ 'ST-DEVELOPER v20',
/* originating_system */ 'ONSHAPE BY PTC INC, 1.210',
/* authorisation */ '  ');

FILE_SCHEMA (('AP242_MANAGED_MODEL_BASED_3D_ENGINEERING_MIM_LF { 1 0 10303 442 3 1 4 }'));
ENDSEC;

DATA;
#10=SHAPE_REPRESENTATION_RELATIONSHIP('','',#717,#11);
#11=ADVANCED_BREP_SHAPE_REPRESENTATION('',(#715),#1143);
#12=CYLINDRICAL_SURFACE('',#752,0.004625);
#13=CYLINDRICAL_SURFACE('',#753,0.004625);
#14=CYLINDRICAL_SURFACE('',#754,0.00175);
#15=CYLINDRICAL_SURFACE('',#755,0.00175);
#16=CYLINDRICAL_SURFACE('',#768,0.0005);
#17=CYLINDRICAL_SURFACE('',#769,0.0005);
#18=CYLINDRICAL_SURFACE('',#770,0.0005);
#19=CYLINDRICAL_SURFACE('',#771,0.0005);
#20=CIRCLE('',#726,0.004625);
#21=CIRCLE('',#729,0.004625);
#22=CIRCLE('',#732,0.004625);
#23=CIRCLE('',#735,0.004625);
#24=CIRCLE('',#743,0.00175);
#25=CIRCLE('',#744,0.00175);
#26=CIRCLE('',#746,0.0005);
#27=CIRCLE('',#747,0.0005);
#28=CIRCLE('',#748,0.0005);
#29=CIRCLE('',#749,0.0005);
#30=CIRCLE('',#750,0.00175);
#31=CIRCLE('',#751,0.00175);
#32=CIRCLE('',#764,0.0005);
#33=CIRCLE('',#765,0.0005);
#34=CIRCLE('',#766,0.0005);
#35=CIRCLE('',#767,0.0005);
#36=ORIENTED_EDGE('',*,*,#212,.T.);
#37=ORIENTED_EDGE('',*,*,#213,.F.);
#38=ORIENTED_EDGE('',*,*,#214,.T.);
#39=ORIENTED_EDGE('',*,*,#215,.T.);
#40=ORIENTED_EDGE('',*,*,#216,.T.);
#41=ORIENTED_EDGE('',*,*,#217,.F.);
#42=ORIENTED_EDGE('',*,*,#218,.T.);
#43=ORIENTED_EDGE('',*,*,#213,.T.);
#44=ORIENTED_EDGE('',*,*,#217,.T.);
#45=ORIENTED_EDGE('',*,*,#219,.F.);
#46=ORIENTED_EDGE('',*,*,#220,.F.);
#47=ORIENTED_EDGE('',*,*,#221,.F.);
#48=ORIENTED_EDGE('',*,*,#220,.T.);
#49=ORIENTED_EDGE('',*,*,#222,.F.);
#50=ORIENTED_EDGE('',*,*,#215,.F.);
#51=ORIENTED_EDGE('',*,*,#223,.F.);
#52=ORIENTED_EDGE('',*,*,#224,.F.);
#53=ORIENTED_EDGE('',*,*,#225,.F.);
#54=ORIENTED_EDGE('',*,*,#226,.T.);
#55=ORIENTED_EDGE('',*,*,#227,.T.);
#56=ORIENTED_EDGE('',*,*,#228,.F.);
#57=ORIENTED_EDGE('',*,*,#229,.T.);
#58=ORIENTED_EDGE('',*,*,#230,.T.);
#59=ORIENTED_EDGE('',*,*,#231,.F.);
#60=ORIENTED_EDGE('',*,*,#232,.F.);
#61=ORIENTED_EDGE('',*,*,#233,.T.);
#62=ORIENTED_EDGE('',*,*,#234,.T.);
#63=ORIENTED_EDGE('',*,*,#235,.F.);
#64=ORIENTED_EDGE('',*,*,#236,.T.);
#65=ORIENTED_EDGE('',*,*,#237,.F.);
#66=ORIENTED_EDGE('',*,*,#238,.F.);
#67=ORIENTED_EDGE('',*,*,#228,.T.);
#68=ORIENTED_EDGE('',*,*,#239,.T.);
#69=ORIENTED_EDGE('',*,*,#240,.T.);
#70=ORIENTED_EDGE('',*,*,#241,.F.);
#71=ORIENTED_EDGE('',*,*,#229,.F.);
#72=ORIENTED_EDGE('',*,*,#238,.T.);
#73=ORIENTED_EDGE('',*,*,#242,.F.);
#74=ORIENTED_EDGE('',*,*,#243,.T.);
#75=ORIENTED_EDGE('',*,*,#244,.F.);
#76=ORIENTED_EDGE('',*,*,#230,.F.);
#77=ORIENTED_EDGE('',*,*,#241,.T.);
#78=ORIENTED_EDGE('',*,*,#245,.F.);
#79=ORIENTED_EDGE('',*,*,#239,.F.);
#80=ORIENTED_EDGE('',*,*,#231,.T.);
#81=ORIENTED_EDGE('',*,*,#244,.T.);
#82=ORIENTED_EDGE('',*,*,#246,.F.);
#83=ORIENTED_EDGE('',*,*,#247,.T.);
#84=ORIENTED_EDGE('',*,*,#248,.F.);
#85=ORIENTED_EDGE('',*,*,#233,.F.);
#86=ORIENTED_EDGE('',*,*,#249,.T.);
#87=ORIENTED_EDGE('',*,*,#250,.F.);
#88=ORIENTED_EDGE('',*,*,#249,.F.);
#89=ORIENTED_EDGE('',*,*,#232,.T.);
#90=ORIENTED_EDGE('',*,*,#251,.T.);
#91=ORIENTED_EDGE('',*,*,#252,.T.);
#92=ORIENTED_EDGE('',*,*,#253,.F.);
#93=ORIENTED_EDGE('',*,*,#251,.F.);
#94=ORIENTED_EDGE('',*,*,#235,.T.);
#95=ORIENTED_EDGE('',*,*,#254,.T.);
#96=ORIENTED_EDGE('',*,*,#255,.T.);
#97=ORIENTED_EDGE('',*,*,#254,.F.);
#98=ORIENTED_EDGE('',*,*,#234,.F.);
#99=ORIENTED_EDGE('',*,*,#248,.T.);
#100=ORIENTED_EDGE('',*,*,#247,.F.);
#101=ORIENTED_EDGE('',*,*,#250,.T.);
#102=ORIENTED_EDGE('',*,*,#253,.T.);
#103=ORIENTED_EDGE('',*,*,#255,.F.);
#104=ORIENTED_EDGE('',*,*,#256,.F.);
#105=ORIENTED_EDGE('',*,*,#257,.T.);
#106=ORIENTED_EDGE('',*,*,#258,.T.);
#107=ORIENTED_EDGE('',*,*,#259,.F.);
#108=ORIENTED_EDGE('',*,*,#260,.F.);
#109=ORIENTED_EDGE('',*,*,#226,.F.);
#110=ORIENTED_EDGE('',*,*,#261,.T.);
#111=ORIENTED_EDGE('',*,*,#262,.T.);
#112=ORIENTED_EDGE('',*,*,#263,.F.);
#113=ORIENTED_EDGE('',*,*,#262,.F.);
#114=ORIENTED_EDGE('',*,*,#264,.T.);
#115=ORIENTED_EDGE('',*,*,#265,.T.);
#116=ORIENTED_EDGE('',*,*,#266,.T.);
#117=ORIENTED_EDGE('',*,*,#265,.F.);
#118=ORIENTED_EDGE('',*,*,#267,.F.);
#119=ORIENTED_EDGE('',*,*,#259,.T.);
#120=ORIENTED_EDGE('',*,*,#268,.T.);
#121=ORIENTED_EDGE('',*,*,#269,.F.);
#122=ORIENTED_EDGE('',*,*,#270,.F.);
#123=ORIENTED_EDGE('',*,*,#271,.T.);
#124=ORIENTED_EDGE('',*,*,#272,.T.);
#125=ORIENTED_EDGE('',*,*,#273,.T.);
#126=ORIENTED_EDGE('',*,*,#225,.T.);
#127=ORIENTED_EDGE('',*,*,#274,.T.);
#128=ORIENTED_EDGE('',*,*,#275,.F.);
#129=ORIENTED_EDGE('',*,*,#276,.F.);
#130=ORIENTED_EDGE('',*,*,#256,.T.);
#131=ORIENTED_EDGE('',*,*,#267,.T.);
#132=ORIENTED_EDGE('',*,*,#264,.F.);
#133=ORIENTED_EDGE('',*,*,#261,.F.);
#134=ORIENTED_EDGE('',*,*,#277,.T.);
#135=ORIENTED_EDGE('',*,*,#278,.T.);
#136=ORIENTED_EDGE('',*,*,#279,.T.);
#137=ORIENTED_EDGE('',*,*,#280,.T.);
#138=ORIENTED_EDGE('',*,*,#214,.F.);
#139=ORIENTED_EDGE('',*,*,#218,.F.);
#140=ORIENTED_EDGE('',*,*,#221,.T.);
#141=ORIENTED_EDGE('',*,*,#223,.T.);
#142=ORIENTED_EDGE('',*,*,#281,.T.);
#143=ORIENTED_EDGE('',*,*,#282,.T.);
#144=ORIENTED_EDGE('',*,*,#240,.F.);
#145=ORIENTED_EDGE('',*,*,#237,.T.);
#146=ORIENTED_EDGE('',*,*,#245,.T.);
#147=ORIENTED_EDGE('',*,*,#243,.F.);
#148=ORIENTED_EDGE('',*,*,#227,.F.);
#149=ORIENTED_EDGE('',*,*,#260,.T.);
#150=ORIENTED_EDGE('',*,*,#263,.T.);
#151=ORIENTED_EDGE('',*,*,#266,.F.);
#152=ORIENTED_EDGE('',*,*,#258,.F.);
#153=ORIENTED_EDGE('',*,*,#283,.T.);
#154=ORIENTED_EDGE('',*,*,#284,.T.);
#155=ORIENTED_EDGE('',*,*,#285,.F.);
#156=ORIENTED_EDGE('',*,*,#252,.F.);
#157=ORIENTED_EDGE('',*,*,#242,.T.);
#158=ORIENTED_EDGE('',*,*,#236,.F.);
#159=ORIENTED_EDGE('',*,*,#246,.T.);
#160=ORIENTED_EDGE('',*,*,#282,.F.);
#161=ORIENTED_EDGE('',*,*,#273,.F.);
#162=ORIENTED_EDGE('',*,*,#281,.F.);
#163=ORIENTED_EDGE('',*,*,#272,.F.);
#164=ORIENTED_EDGE('',*,*,#285,.T.);
#165=ORIENTED_EDGE('',*,*,#286,.F.);
#166=ORIENTED_EDGE('',*,*,#274,.F.);
#167=ORIENTED_EDGE('',*,*,#224,.T.);
#168=ORIENTED_EDGE('',*,*,#283,.F.);
#169=ORIENTED_EDGE('',*,*,#257,.F.);
#170=ORIENTED_EDGE('',*,*,#276,.T.);
#171=ORIENTED_EDGE('',*,*,#287,.T.);
#172=ORIENTED_EDGE('',*,*,#284,.F.);
#173=ORIENTED_EDGE('',*,*,#287,.F.);
#174=ORIENTED_EDGE('',*,*,#275,.T.);
#175=ORIENTED_EDGE('',*,*,#286,.T.);
#176=ORIENTED_EDGE('',*,*,#269,.T.);
#177=ORIENTED_EDGE('',*,*,#288,.F.);
#178=ORIENTED_EDGE('',*,*,#289,.F.);
#179=ORIENTED_EDGE('',*,*,#290,.T.);
#180=ORIENTED_EDGE('',*,*,#268,.F.);
#181=ORIENTED_EDGE('',*,*,#291,.F.);
#182=ORIENTED_EDGE('',*,*,#292,.T.);
#183=ORIENTED_EDGE('',*,*,#288,.T.);
#184=ORIENTED_EDGE('',*,*,#271,.F.);
#185=ORIENTED_EDGE('',*,*,#293,.F.);
#186=ORIENTED_EDGE('',*,*,#294,.T.);
#187=ORIENTED_EDGE('',*,*,#291,.T.);
#188=ORIENTED_EDGE('',*,*,#270,.T.);
#189=ORIENTED_EDGE('',*,*,#290,.F.);
#190=ORIENTED_EDGE('',*,*,#295,.F.);
#191=ORIENTED_EDGE('',*,*,#293,.T.);
#192=ORIENTED_EDGE('',*,*,#296,.T.);
#193=ORIENTED_EDGE('',*,*,#297,.T.);
#194=ORIENTED_EDGE('',*,*,#298,.T.);
#195=ORIENTED_EDGE('',*,*,#299,.T.);
#196=ORIENTED_EDGE('',*,*,#216,.F.);
#197=ORIENTED_EDGE('',*,*,#212,.F.);
#198=ORIENTED_EDGE('',*,*,#222,.T.);
#199=ORIENTED_EDGE('',*,*,#219,.T.);
#200=ORIENTED_EDGE('',*,*,#289,.T.);
#201=ORIENTED_EDGE('',*,*,#292,.F.);
#202=ORIENTED_EDGE('',*,*,#294,.F.);
#203=ORIENTED_EDGE('',*,*,#295,.T.);
#204=ORIENTED_EDGE('',*,*,#280,.F.);
#205=ORIENTED_EDGE('',*,*,#299,.F.);
#206=ORIENTED_EDGE('',*,*,#279,.F.);
#207=ORIENTED_EDGE('',*,*,#298,.F.);
#208=ORIENTED_EDGE('',*,*,#278,.F.);
#209=ORIENTED_EDGE('',*,*,#297,.F.);
#210=ORIENTED_EDGE('',*,*,#277,.F.);
#211=ORIENTED_EDGE('',*,*,#296,.F.);
#212=EDGE_CURVE('',#300,#301,#364,.T.);
#213=EDGE_CURVE('',#302,#301,#365,.T.);
#214=EDGE_CURVE('',#302,#303,#366,.T.);
#215=EDGE_CURVE('',#303,#300,#367,.T.);
#216=EDGE_CURVE('',#301,#304,#368,.T.);
#217=EDGE_CURVE('',#305,#304,#369,.T.);
#218=EDGE_CURVE('',#305,#302,#370,.T.);
#219=EDGE_CURVE('',#306,#304,#371,.T.);
#220=EDGE_CURVE('',#307,#306,#372,.T.);
#221=EDGE_CURVE('',#305,#307,#373,.T.);
#222=EDGE_CURVE('',#300,#306,#374,.T.);
#223=EDGE_CURVE('',#307,#303,#375,.T.);
#224=EDGE_CURVE('',#308,#309,#376,.T.);
#225=EDGE_CURVE('',#310,#308,#377,.T.);
#226=EDGE_CURVE('',#310,#311,#378,.T.);
#227=EDGE_CURVE('',#311,#309,#379,.T.);
#228=EDGE_CURVE('',#312,#313,#380,.T.);
#229=EDGE_CURVE('',#312,#314,#381,.T.);
#230=EDGE_CURVE('',#314,#315,#382,.T.);
#231=EDGE_CURVE('',#313,#315,#383,.T.);
#232=EDGE_CURVE('',#316,#317,#384,.T.);
#233=EDGE_CURVE('',#316,#318,#385,.T.);
#234=EDGE_CURVE('',#318,#319,#386,.T.);
#235=EDGE_CURVE('',#317,#319,#387,.T.);
#236=EDGE_CURVE('',#320,#320,#20,.T.);
#237=EDGE_CURVE('',#321,#322,#388,.T.);
#238=EDGE_CURVE('',#312,#321,#389,.T.);
#239=EDGE_CURVE('',#313,#322,#390,.T.);
#240=EDGE_CURVE('',#321,#323,#391,.T.);
#241=EDGE_CURVE('',#314,#323,#392,.T.);
#242=EDGE_CURVE('',#324,#324,#21,.F.);
#243=EDGE_CURVE('',#323,#325,#393,.T.);
#244=EDGE_CURVE('',#315,#325,#394,.T.);
#245=EDGE_CURVE('',#322,#325,#395,.T.);
#246=EDGE_CURVE('',#326,#326,#22,.F.);
#247=EDGE_CURVE('',#327,#328,#396,.T.);
#248=EDGE_CURVE('',#318,#328,#397,.T.);
#249=EDGE_CURVE('',#316,#327,#398,.T.);
#250=EDGE_CURVE('',#327,#329,#399,.T.);
#251=EDGE_CURVE('',#317,#329,#400,.T.);
#252=EDGE_CURVE('',#330,#330,#23,.F.);
#253=EDGE_CURVE('',#329,#331,#401,.T.);
#254=EDGE_CURVE('',#319,#331,#402,.T.);
#255=EDGE_CURVE('',#328,#331,#403,.T.);
#256=EDGE_CURVE('',#332,#333,#404,.T.);
#257=EDGE_CURVE('',#332,#334,#405,.T.);
#258=EDGE_CURVE('',#334,#335,#406,.T.);
#259=EDGE_CURVE('',#333,#335,#407,.T.);
#260=EDGE_CURVE('',#311,#336,#408,.T.);
#261=EDGE_CURVE('',#310,#337,#409,.T.);
#262=EDGE_CURVE('',#337,#336,#410,.T.);
#263=EDGE_CURVE('',#336,#338,#411,.T.);
#264=EDGE_CURVE('',#337,#339,#412,.T.);
#265=EDGE_CURVE('',#339,#338,#413,.T.);
#266=EDGE_CURVE('',#335,#338,#414,.T.);
#267=EDGE_CURVE('',#333,#339,#415,.T.);
#268=EDGE_CURVE('',#340,#341,#416,.T.);
#269=EDGE_CURVE('',#342,#341,#417,.T.);
#270=EDGE_CURVE('',#343,#342,#418,.T.);
#271=EDGE_CURVE('',#343,#340,#419,.T.);
#272=EDGE_CURVE('',#344,#344,#24,.T.);
#273=EDGE_CURVE('',#345,#345,#25,.T.);
#274=EDGE_CURVE('',#308,#346,#420,.T.);
#275=EDGE_CURVE('',#347,#346,#421,.T.);
#276=EDGE_CURVE('',#332,#347,#422,.T.);
#277=EDGE_CURVE('',#348,#348,#26,.F.);
#278=EDGE_CURVE('',#349,#349,#27,.F.);
#279=EDGE_CURVE('',#350,#350,#28,.F.);
#280=EDGE_CURVE('',#351,#351,#29,.F.);
#281=EDGE_CURVE('',#352,#352,#30,.F.);
#282=EDGE_CURVE('',#353,#353,#31,.F.);
#283=EDGE_CURVE('',#334,#354,#423,.T.);
#284=EDGE_CURVE('',#354,#355,#424,.T.);
#285=EDGE_CURVE('',#309,#355,#425,.T.);
#286=EDGE_CURVE('',#346,#355,#426,.T.);
#287=EDGE_CURVE('',#347,#354,#427,.T.);
#288=EDGE_CURVE('',#356,#341,#428,.T.);
#289=EDGE_CURVE('',#357,#356,#429,.T.);
#290=EDGE_CURVE('',#357,#342,#430,.T.);
#291=EDGE_CURVE('',#358,#340,#431,.T.);
#292=EDGE_CURVE('',#358,#356,#432,.T.);
#293=EDGE_CURVE('',#359,#343,#433,.T.);
#294=EDGE_CURVE('',#359,#358,#434,.T.);
#295=EDGE_CURVE('',#359,#357,#435,.T.);
#296=EDGE_CURVE('',#360,#360,#32,.T.);
#297=EDGE_CURVE('',#361,#361,#33,.T.);
#298=EDGE_CURVE('',#362,#362,#34,.T.);
#299=EDGE_CURVE('',#363,#363,#35,.T.);
#300=VERTEX_POINT('',#955);
#301=VERTEX_POINT('',#956);
#302=VERTEX_POINT('',#958);
#303=VERTEX_POINT('',#960);
#304=VERTEX_POINT('',#964);
#305=VERTEX_POINT('',#966);
#306=VERTEX_POINT('',#970);
#307=VERTEX_POINT('',#972);
#308=VERTEX_POINT('',#979);
#309=VERTEX_POINT('',#980);
#310=VERTEX_POINT('',#982);
#311=VERTEX_POINT('',#984);
#312=VERTEX_POINT('',#988);
#313=VERTEX_POINT('',#989);
#314=VERTEX_POINT('',#991);
#315=VERTEX_POINT('',#993);
#316=VERTEX_POINT('',#996);
#317=VERTEX_POINT('',#997);
#318=VERTEX_POINT('',#999);
#319=VERTEX_POINT('',#1001);
#320=VERTEX_POINT('',#1005);
#321=VERTEX_POINT('',#1007);
#322=VERTEX_POINT('',#1008);
#323=VERTEX_POINT('',#1013);
#324=VERTEX_POINT('',#1017);
#325=VERTEX_POINT('',#1019);
#326=VERTEX_POINT('',#1025);
#327=VERTEX_POINT('',#1027);
#328=VERTEX_POINT('',#1028);
#329=VERTEX_POINT('',#1033);
#330=VERTEX_POINT('',#1037);
#331=VERTEX_POINT('',#1039);
#332=VERTEX_POINT('',#1046);
#333=VERTEX_POINT('',#1047);
#334=VERTEX_POINT('',#1049);
#335=VERTEX_POINT('',#1051);
#336=VERTEX_POINT('',#1055);
#337=VERTEX_POINT('',#1057);
#338=VERTEX_POINT('',#1061);
#339=VERTEX_POINT('',#1063);
#340=VERTEX_POINT('',#1070);
#341=VERTEX_POINT('',#1071);
#342=VERTEX_POINT('',#1073);
#343=VERTEX_POINT('',#1075);
#344=VERTEX_POINT('',#1078);
#345=VERTEX_POINT('',#1080);
#346=VERTEX_POINT('',#1082);
#347=VERTEX_POINT('',#1084);
#348=VERTEX_POINT('',#1088);
#349=VERTEX_POINT('',#1090);
#350=VERTEX_POINT('',#1092);
#351=VERTEX_POINT('',#1094);
#352=VERTEX_POINT('',#1096);
#353=VERTEX_POINT('',#1098);
#354=VERTEX_POINT('',#1100);
#355=VERTEX_POINT('',#1102);
#356=VERTEX_POINT('',#1115);
#357=VERTEX_POINT('',#1117);
#358=VERTEX_POINT('',#1121);
#359=VERTEX_POINT('',#1125);
#360=VERTEX_POINT('',#1131);
#361=VERTEX_POINT('',#1133);
#362=VERTEX_POINT('',#1135);
#363=VERTEX_POINT('',#1137);
#364=LINE('',#954,#436);
#365=LINE('',#957,#437);
#366=LINE('',#959,#438);
#367=LINE('',#961,#439);
#368=LINE('',#963,#440);
#369=LINE('',#965,#441);
#370=LINE('',#967,#442);
#371=LINE('',#969,#443);
#372=LINE('',#971,#444);
#373=LINE('',#973,#445);
#374=LINE('',#975,#446);
#375=LINE('',#976,#447);
#376=LINE('',#978,#448);
#377=LINE('',#981,#449);
#378=LINE('',#983,#450);
#379=LINE('',#985,#451);
#380=LINE('',#987,#452);
#381=LINE('',#990,#453);
#382=LINE('',#992,#454);
#383=LINE('',#994,#455);
#384=LINE('',#995,#456);
#385=LINE('',#998,#457);
#386=LINE('',#1000,#458);
#387=LINE('',#1002,#459);
#388=LINE('',#1006,#460);
#389=LINE('',#1009,#461);
#390=LINE('',#1010,#462);
#391=LINE('',#1012,#463);
#392=LINE('',#1014,#464);
#393=LINE('',#1018,#465);
#394=LINE('',#1020,#466);
#395=LINE('',#1022,#467);
#396=LINE('',#1026,#468);
#397=LINE('',#1029,#469);
#398=LINE('',#1030,#470);
#399=LINE('',#1032,#471);
#400=LINE('',#1034,#472);
#401=LINE('',#1038,#473);
#402=LINE('',#1040,#474);
#403=LINE('',#1042,#475);
#404=LINE('',#1045,#476);
#405=LINE('',#1048,#477);
#406=LINE('',#1050,#478);
#407=LINE('',#1052,#479);
#408=LINE('',#1054,#480);
#409=LINE('',#1056,#481);
#410=LINE('',#1058,#482);
#411=LINE('',#1060,#483);
#412=LINE('',#1062,#484);
#413=LINE('',#1064,#485);
#414=LINE('',#1066,#486);
#415=LINE('',#1067,#487);
#416=LINE('',#1069,#488);
#417=LINE('',#1072,#489);
#418=LINE('',#1074,#490);
#419=LINE('',#1076,#491);
#420=LINE('',#1081,#492);
#421=LINE('',#1083,#493);
#422=LINE('',#1085,#494);
#423=LINE('',#1099,#495);
#424=LINE('',#1101,#496);
#425=LINE('',#1103,#497);
#426=LINE('',#1109,#498);
#427=LINE('',#1111,#499);
#428=LINE('',#1114,#500);
#429=LINE('',#1116,#501);
#430=LINE('',#1118,#502);
#431=LINE('',#1120,#503);
#432=LINE('',#1122,#504);
#433=LINE('',#1124,#505);
#434=LINE('',#1126,#506);
#435=LINE('',#1128,#507);
#436=VECTOR('',#776,1.);
#437=VECTOR('',#777,1.);
#438=VECTOR('',#778,1.);
#439=VECTOR('',#779,1.);
#440=VECTOR('',#782,1.);
#441=VECTOR('',#783,1.);
#442=VECTOR('',#784,1.);
#443=VECTOR('',#787,1.);
#444=VECTOR('',#788,1.);
#445=VECTOR('',#789,1.);
#446=VECTOR('',#792,1.);
#447=VECTOR('',#793,1.);
#448=VECTOR('',#796,1.);
#449=VECTOR('',#797,1.);
#450=VECTOR('',#798,1.);
#451=VECTOR('',#799,1.);
#452=VECTOR('',#802,1.);
#453=VECTOR('',#803,1.);
#454=VECTOR('',#804,1.);
#455=VECTOR('',#805,1.);
#456=VECTOR('',#806,1.);
#457=VECTOR('',#807,1.);
#458=VECTOR('',#808,1.);
#459=VECTOR('',#809,1.);
#460=VECTOR('',#814,1.);
#461=VECTOR('',#815,1.);
#462=VECTOR('',#816,1.);
#463=VECTOR('',#819,1.);
#464=VECTOR('',#820,1.);
#465=VECTOR('',#825,1.);
#466=VECTOR('',#826,1.);
#467=VECTOR('',#829,1.);
#468=VECTOR('',#834,1.);
#469=VECTOR('',#835,1.);
#470=VECTOR('',#836,1.);
#471=VECTOR('',#839,1.);
#472=VECTOR('',#840,1.);
#473=VECTOR('',#845,1.);
#474=VECTOR('',#846,1.);
#475=VECTOR('',#849,1.);
#476=VECTOR('',#854,1.);
#477=VECTOR('',#855,1.);
#478=VECTOR('',#856,1.);
#479=VECTOR('',#857,1.);
#480=VECTOR('',#860,1.);
#481=VECTOR('',#861,1.);
#482=VECTOR('',#862,1.);
#483=VECTOR('',#865,1.);
#484=VECTOR('',#866,1.);
#485=VECTOR('',#867,1.);
#486=VECTOR('',#870,1.);
#487=VECTOR('',#871,1.);
#488=VECTOR('',#874,1.);
#489=VECTOR('',#875,1.);
#490=VECTOR('',#876,1.);
#491=VECTOR('',#877,1.);
#492=VECTOR('',#882,1.);
#493=VECTOR('',#883,1.);
#494=VECTOR('',#884,1.);
#495=VECTOR('',#899,1.);
#496=VECTOR('',#900,1.);
#497=VECTOR('',#901,1.);
#498=VECTOR('',#912,1.);
#499=VECTOR('',#915,1.);
#500=VECTOR('',#920,1.);
#501=VECTOR('',#921,1.);
#502=VECTOR('',#922,1.);
#503=VECTOR('',#925,1.);
#504=VECTOR('',#926,1.);
#505=VECTOR('',#929,1.);
#506=VECTOR('',#930,1.);
#507=VECTOR('',#933,1.);
#508=EDGE_LOOP('',(#36,#37,#38,#39));
#509=EDGE_LOOP('',(#40,#41,#42,#43));
#510=EDGE_LOOP('',(#44,#45,#46,#47));
#511=EDGE_LOOP('',(#48,#49,#50,#51));
#512=EDGE_LOOP('',(#52,#53,#54,#55));
#513=EDGE_LOOP('',(#56,#57,#58,#59));
#514=EDGE_LOOP('',(#60,#61,#62,#63));
#515=EDGE_LOOP('',(#64));
#516=EDGE_LOOP('',(#65,#66,#67,#68));
#517=EDGE_LOOP('',(#69,#70,#71,#72));
#518=EDGE_LOOP('',(#73));
#519=EDGE_LOOP('',(#74,#75,#76,#77));
#520=EDGE_LOOP('',(#78,#79,#80,#81));
#521=EDGE_LOOP('',(#82));
#522=EDGE_LOOP('',(#83,#84,#85,#86));
#523=EDGE_LOOP('',(#87,#88,#89,#90));
#524=EDGE_LOOP('',(#91));
#525=EDGE_LOOP('',(#92,#93,#94,#95));
#526=EDGE_LOOP('',(#96,#97,#98,#99));
#527=EDGE_LOOP('',(#100,#101,#102,#103));
#528=EDGE_LOOP('',(#104,#105,#106,#107));
#529=EDGE_LOOP('',(#108,#109,#110,#111));
#530=EDGE_LOOP('',(#112,#113,#114,#115));
#531=EDGE_LOOP('',(#116,#117,#118,#119));
#532=EDGE_LOOP('',(#120,#121,#122,#123));
#533=EDGE_LOOP('',(#124));
#534=EDGE_LOOP('',(#125));
#535=EDGE_LOOP('',(#126,#127,#128,#129,#130,#131,#132,#133));
#536=EDGE_LOOP('',(#134));
#537=EDGE_LOOP('',(#135));
#538=EDGE_LOOP('',(#136));
#539=EDGE_LOOP('',(#137));
#540=EDGE_LOOP('',(#138,#139,#140,#141));
#541=EDGE_LOOP('',(#142));
#542=EDGE_LOOP('',(#143));
#543=EDGE_LOOP('',(#144,#145,#146,#147));
#544=EDGE_LOOP('',(#148,#149,#150,#151,#152,#153,#154,#155));
#545=EDGE_LOOP('',(#156));
#546=EDGE_LOOP('',(#157));
#547=EDGE_LOOP('',(#158));
#548=EDGE_LOOP('',(#159));
#549=EDGE_LOOP('',(#160));
#550=EDGE_LOOP('',(#161));
#551=EDGE_LOOP('',(#162));
#552=EDGE_LOOP('',(#163));
#553=EDGE_LOOP('',(#164,#165,#166,#167));
#554=EDGE_LOOP('',(#168,#169,#170,#171));
#555=EDGE_LOOP('',(#172,#173,#174,#175));
#556=EDGE_LOOP('',(#176,#177,#178,#179));
#557=EDGE_LOOP('',(#180,#181,#182,#183));
#558=EDGE_LOOP('',(#184,#185,#186,#187));
#559=EDGE_LOOP('',(#188,#189,#190,#191));
#560=EDGE_LOOP('',(#192));
#561=EDGE_LOOP('',(#193));
#562=EDGE_LOOP('',(#194));
#563=EDGE_LOOP('',(#195));
#564=EDGE_LOOP('',(#196,#197,#198,#199));
#565=EDGE_LOOP('',(#200,#201,#202,#203));
#566=EDGE_LOOP('',(#204));
#567=EDGE_LOOP('',(#205));
#568=EDGE_LOOP('',(#206));
#569=EDGE_LOOP('',(#207));
#570=EDGE_LOOP('',(#208));
#571=EDGE_LOOP('',(#209));
#572=EDGE_LOOP('',(#210));
#573=EDGE_LOOP('',(#211));
#574=FACE_BOUND('',#508,.T.);
#575=FACE_BOUND('',#509,.T.);
#576=FACE_BOUND('',#510,.T.);
#577=FACE_BOUND('',#511,.T.);
#578=FACE_BOUND('',#512,.T.);
#579=FACE_BOUND('',#513,.T.);
#580=FACE_BOUND('',#514,.T.);
#581=FACE_BOUND('',#515,.T.);
#582=FACE_BOUND('',#516,.T.);
#583=FACE_BOUND('',#517,.T.);
#584=FACE_BOUND('',#518,.T.);
#585=FACE_BOUND('',#519,.T.);
#586=FACE_BOUND('',#520,.T.);
#587=FACE_BOUND('',#521,.T.);
#588=FACE_BOUND('',#522,.T.);
#589=FACE_BOUND('',#523,.T.);
#590=FACE_BOUND('',#524,.T.);
#591=FACE_BOUND('',#525,.T.);
#592=FACE_BOUND('',#526,.T.);
#593=FACE_BOUND('',#527,.T.);
#594=FACE_BOUND('',#528,.T.);
#595=FACE_BOUND('',#529,.T.);
#596=FACE_BOUND('',#530,.T.);
#597=FACE_BOUND('',#531,.T.);
#598=FACE_BOUND('',#532,.T.);
#599=FACE_BOUND('',#533,.T.);
#600=FACE_BOUND('',#534,.T.);
#601=FACE_BOUND('',#535,.T.);
#602=FACE_BOUND('',#536,.T.);
#603=FACE_BOUND('',#537,.T.);
#604=FACE_BOUND('',#538,.T.);
#605=FACE_BOUND('',#539,.T.);
#606=FACE_BOUND('',#540,.T.);
#607=FACE_BOUND('',#541,.T.);
#608=FACE_BOUND('',#542,.T.);
#609=FACE_BOUND('',#543,.T.);
#610=FACE_BOUND('',#544,.T.);
#611=FACE_BOUND('',#545,.T.);
#612=FACE_BOUND('',#546,.T.);
#613=FACE_BOUND('',#547,.T.);
#614=FACE_BOUND('',#548,.T.);
#615=FACE_BOUND('',#549,.T.);
#616=FACE_BOUND('',#550,.T.);
#617=FACE_BOUND('',#551,.T.);
#618=FACE_BOUND('',#552,.T.);
#619=FACE_BOUND('',#553,.T.);
#620=FACE_BOUND('',#554,.T.);
#621=FACE_BOUND('',#555,.T.);
#622=FACE_BOUND('',#556,.T.);
#623=FACE_BOUND('',#557,.T.);
#624=FACE_BOUND('',#558,.T.);
#625=FACE_BOUND('',#559,.T.);
#626=FACE_BOUND('',#560,.T.);
#627=FACE_BOUND('',#561,.T.);
#628=FACE_BOUND('',#562,.T.);
#629=FACE_BOUND('',#563,.T.);
#630=FACE_BOUND('',#564,.T.);
#631=FACE_BOUND('',#565,.T.);
#632=FACE_BOUND('',#566,.T.);
#633=FACE_BOUND('',#567,.T.);
#634=FACE_BOUND('',#568,.T.);
#635=FACE_BOUND('',#569,.T.);
#636=FACE_BOUND('',#570,.T.);
#637=FACE_BOUND('',#571,.T.);
#638=FACE_BOUND('',#572,.T.);
#639=FACE_BOUND('',#573,.T.);
#640=PLANE('',#719);
#641=PLANE('',#720);
#642=PLANE('',#721);
#643=PLANE('',#722);
#644=PLANE('',#723);
#645=PLANE('',#724);
#646=PLANE('',#725);
#647=PLANE('',#727);
#648=PLANE('',#728);
#649=PLANE('',#730);
#650=PLANE('',#731);
#651=PLANE('',#733);
#652=PLANE('',#734);
#653=PLANE('',#736);
#654=PLANE('',#737);
#655=PLANE('',#738);
#656=PLANE('',#739);
#657=PLANE('',#740);
#658=PLANE('',#741);
#659=PLANE('',#742);
#660=PLANE('',#745);
#661=PLANE('',#756);
#662=PLANE('',#757);
#663=PLANE('',#758);
#664=PLANE('',#759);
#665=PLANE('',#760);
#666=PLANE('',#761);
#667=PLANE('',#762);
#668=PLANE('',#763);
#669=ADVANCED_FACE('',(#574),#640,.F.);
#670=ADVANCED_FACE('',(#575),#641,.F.);
#671=ADVANCED_FACE('',(#576),#642,.T.);
#672=ADVANCED_FACE('',(#577),#643,.T.);
#673=ADVANCED_FACE('',(#578),#644,.F.);
#674=ADVANCED_FACE('',(#579,#580),#645,.T.);
#675=ADVANCED_FACE('',(#581,#582),#646,.T.);
#676=ADVANCED_FACE('',(#583),#647,.F.);
#677=ADVANCED_FACE('',(#584,#585),#648,.F.);
#678=ADVANCED_FACE('',(#586),#649,.T.);
#679=ADVANCED_FACE('',(#587,#588),#650,.F.);
#680=ADVANCED_FACE('',(#589),#651,.T.);
#681=ADVANCED_FACE('',(#590,#591),#652,.T.);
#682=ADVANCED_FACE('',(#592),#653,.F.);
#683=ADVANCED_FACE('',(#593),#654,.T.);
#684=ADVANCED_FACE('',(#594),#655,.F.);
#685=ADVANCED_FACE('',(#595),#656,.T.);
#686=ADVANCED_FACE('',(#596),#657,.T.);
#687=ADVANCED_FACE('',(#597),#658,.F.);
#688=ADVANCED_FACE('',(#598,#599,#600,#601),#659,.F.);
#689=ADVANCED_FACE('',(#602,#603,#604,#605,#606,#607,#608,#609,#610),#660,
 .T.);
#690=ADVANCED_FACE('',(#611,#612),#12,.F.);
#691=ADVANCED_FACE('',(#613,#614),#13,.F.);
#692=ADVANCED_FACE('',(#615,#616),#14,.F.);
#693=ADVANCED_FACE('',(#617,#618),#15,.F.);
#694=ADVANCED_FACE('',(#619),#661,.F.);
#695=ADVANCED_FACE('',(#620),#662,.T.);
#696=ADVANCED_FACE('',(#621),#663,.T.);
#697=ADVANCED_FACE('',(#622),#664,.F.);
#698=ADVANCED_FACE('',(#623),#665,.T.);
#699=ADVANCED_FACE('',(#624),#666,.T.);
#700=ADVANCED_FACE('',(#625),#667,.F.);
#701=ADVANCED_FACE('',(#626,#627,#628,#629,#630,#631),#668,.T.);
#702=ADVANCED_FACE('',(#632,#633),#16,.F.);
#703=ADVANCED_FACE('',(#634,#635),#17,.F.);
#704=ADVANCED_FACE('',(#636,#637),#18,.F.);
#705=ADVANCED_FACE('',(#638,#639),#19,.F.);
#706=CLOSED_SHELL('',(#669,#670,#671,#672,#673,#674,#675,#676,#677,#678,
#679,#680,#681,#682,#683,#684,#685,#686,#687,#688,#689,#690,#691,#692,#693,
#694,#695,#696,#697,#698,#699,#700,#701,#702,#703,#704,#705));
#707=STYLED_ITEM('',(#708),#715);
#708=PRESENTATION_STYLE_ASSIGNMENT((#709));
#709=SURFACE_STYLE_USAGE(.BOTH.,#710);
#710=SURFACE_SIDE_STYLE('',(#711));
#711=SURFACE_STYLE_FILL_AREA(#712);
#712=FILL_AREA_STYLE('',(#713));
#713=FILL_AREA_STYLE_COLOUR('',#714);
#714=COLOUR_RGB('',0.615686274509804,0.811764705882353,0.929411764705882);
#715=MANIFOLD_SOLID_BREP('Part 2',#706);
#716=SHAPE_DEFINITION_REPRESENTATION(#1148,#717);
#717=SHAPE_REPRESENTATION('Part 2',(#718),#1143);
#718=AXIS2_PLACEMENT_3D('',#952,#772,#773);
#719=AXIS2_PLACEMENT_3D('',#953,#774,#775);
#720=AXIS2_PLACEMENT_3D('',#962,#780,#781);
#721=AXIS2_PLACEMENT_3D('',#968,#785,#786);
#722=AXIS2_PLACEMENT_3D('',#974,#790,#791);
#723=AXIS2_PLACEMENT_3D('',#977,#794,#795);
#724=AXIS2_PLACEMENT_3D('',#986,#800,#801);
#725=AXIS2_PLACEMENT_3D('',#1003,#810,#811);
#726=AXIS2_PLACEMENT_3D('',#1004,#812,#813);
#727=AXIS2_PLACEMENT_3D('',#1011,#817,#818);
#728=AXIS2_PLACEMENT_3D('',#1015,#821,#822);
#729=AXIS2_PLACEMENT_3D('',#1016,#823,#824);
#730=AXIS2_PLACEMENT_3D('',#1021,#827,#828);
#731=AXIS2_PLACEMENT_3D('',#1023,#830,#831);
#732=AXIS2_PLACEMENT_3D('',#1024,#832,#833);
#733=AXIS2_PLACEMENT_3D('',#1031,#837,#838);
#734=AXIS2_PLACEMENT_3D('',#1035,#841,#842);
#735=AXIS2_PLACEMENT_3D('',#1036,#843,#844);
#736=AXIS2_PLACEMENT_3D('',#1041,#847,#848);
#737=AXIS2_PLACEMENT_3D('',#1043,#850,#851);
#738=AXIS2_PLACEMENT_3D('',#1044,#852,#853);
#739=AXIS2_PLACEMENT_3D('',#1053,#858,#859);
#740=AXIS2_PLACEMENT_3D('',#1059,#863,#864);
#741=AXIS2_PLACEMENT_3D('',#1065,#868,#869);
#742=AXIS2_PLACEMENT_3D('',#1068,#872,#873);
#743=AXIS2_PLACEMENT_3D('',#1077,#878,#879);
#744=AXIS2_PLACEMENT_3D('',#1079,#880,#881);
#745=AXIS2_PLACEMENT_3D('',#1086,#885,#886);
#746=AXIS2_PLACEMENT_3D('',#1087,#887,#888);
#747=AXIS2_PLACEMENT_3D('',#1089,#889,#890);
#748=AXIS2_PLACEMENT_3D('',#1091,#891,#892);
#749=AXIS2_PLACEMENT_3D('',#1093,#893,#894);
#750=AXIS2_PLACEMENT_3D('',#1095,#895,#896);
#751=AXIS2_PLACEMENT_3D('',#1097,#897,#898);
#752=AXIS2_PLACEMENT_3D('',#1104,#902,#903);
#753=AXIS2_PLACEMENT_3D('',#1105,#904,#905);
#754=AXIS2_PLACEMENT_3D('',#1106,#906,#907);
#755=AXIS2_PLACEMENT_3D('',#1107,#908,#909);
#756=AXIS2_PLACEMENT_3D('',#1108,#910,#911);
#757=AXIS2_PLACEMENT_3D('',#1110,#913,#914);
#758=AXIS2_PLACEMENT_3D('',#1112,#916,#917);
#759=AXIS2_PLACEMENT_3D('',#1113,#918,#919);
#760=AXIS2_PLACEMENT_3D('',#1119,#923,#924);
#761=AXIS2_PLACEMENT_3D('',#1123,#927,#928);
#762=AXIS2_PLACEMENT_3D('',#1127,#931,#932);
#763=AXIS2_PLACEMENT_3D('',#1129,#934,#935);
#764=AXIS2_PLACEMENT_3D('',#1130,#936,#937);
#765=AXIS2_PLACEMENT_3D('',#1132,#938,#939);
#766=AXIS2_PLACEMENT_3D('',#1134,#940,#941);
#767=AXIS2_PLACEMENT_3D('',#1136,#942,#943);
#768=AXIS2_PLACEMENT_3D('',#1138,#944,#945);
#769=AXIS2_PLACEMENT_3D('',#1139,#946,#947);
#770=AXIS2_PLACEMENT_3D('',#1140,#948,#949);
#771=AXIS2_PLACEMENT_3D('',#1141,#950,#951);
#772=DIRECTION('',(0.,0.,1.));
#773=DIRECTION('',(1.,0.,0.));
#774=DIRECTION('',(1.,0.,0.));
#775=DIRECTION('',(0.,0.,-1.));
#776=DIRECTION('',(0.,-1.,0.));
#777=DIRECTION('',(0.,0.,-1.));
#778=DIRECTION('',(0.,1.,0.));
#779=DIRECTION('',(0.,0.,-1.));
#780=DIRECTION('',(0.,-1.,0.));
#781=DIRECTION('',(0.,0.,-1.));
#782=DIRECTION('',(-1.,0.,0.));
#783=DIRECTION('',(0.,0.,-1.));
#784=DIRECTION('',(1.,0.,0.));
#785=DIRECTION('',(1.,0.,0.));
#786=DIRECTION('',(0.,0.,-1.));
#787=DIRECTION('',(0.,-1.,0.));
#788=DIRECTION('',(0.,0.,-1.));
#789=DIRECTION('',(0.,1.,0.));
#790=DIRECTION('',(0.,-1.,0.));
#791=DIRECTION('',(0.,0.,-1.));
#792=DIRECTION('',(-1.,0.,0.));
#793=DIRECTION('',(1.,0.,0.));
#794=DIRECTION('',(-2.31296463463574E-16,1.,0.));
#795=DIRECTION('',(-1.,-2.31296463463574E-16,0.));
#796=DIRECTION('',(0.,0.,1.));
#797=DIRECTION('',(-1.,-2.31296463463574E-16,0.));
#798=DIRECTION('',(0.,0.,1.));
#799=DIRECTION('',(-1.,-2.31296463463574E-16,0.));
#800=DIRECTION('',(0.,0.,1.));
#801=DIRECTION('',(1.,0.,0.));
#802=DIRECTION('',(-3.46944695195362E-16,-1.,0.));
#803=DIRECTION('',(-1.,0.,0.));
#804=DIRECTION('',(-3.46944695195362E-16,-1.,0.));
#805=DIRECTION('',(-1.,0.,0.));
#806=DIRECTION('',(-1.,0.,0.));
#807=DIRECTION('',(-3.46944695195362E-16,-1.,0.));
#808=DIRECTION('',(-1.,0.,0.));
#809=DIRECTION('',(-3.46944695195362E-16,-1.,0.));
#810=DIRECTION('',(1.,-3.46944695195362E-16,-3.03537277000512E-17));
#811=DIRECTION('',(3.46944695195362E-16,1.,0.));
#812=DIRECTION('',(-1.,3.46944695195362E-16,3.03537277000512E-17));
#813=DIRECTION('',(-3.46944695195362E-16,-1.,0.));
#814=DIRECTION('',(-3.46944695195362E-16,-1.,0.));
#815=DIRECTION('',(0.,0.0871557427476581,-0.996194698091745));
#816=DIRECTION('',(0.,0.0871557427476581,-0.996194698091745));
#817=DIRECTION('',(0.,-0.996194698091745,-0.0871557427476581));
#818=DIRECTION('',(0.,0.0871557427476582,-0.996194698091746));
#819=DIRECTION('',(-1.,0.,0.));
#820=DIRECTION('',(0.,0.0871557427476581,-0.996194698091745));
#821=DIRECTION('',(1.,-3.46944695195362E-16,-3.03537277000512E-17));
#822=DIRECTION('',(3.46944695195362E-16,1.,0.));
#823=DIRECTION('',(1.,-3.46944695195362E-16,-3.03537277000512E-17));
#824=DIRECTION('',(3.46944695195362E-16,1.,0.));
#825=DIRECTION('',(-3.46944695195362E-16,-1.,0.));
#826=DIRECTION('',(0.,0.0871557427476581,-0.996194698091745));
#827=DIRECTION('',(0.,-0.996194698091745,-0.0871557427476581));
#828=DIRECTION('',(0.,0.0871557427476582,-0.996194698091746));
#829=DIRECTION('',(-1.,0.,0.));
#830=DIRECTION('',(1.,-3.46944695195362E-16,-3.03537277000512E-17));
#831=DIRECTION('',(3.46944695195362E-16,1.,0.));
#832=DIRECTION('',(1.,-3.46944695195362E-16,-3.03537277000512E-17));
#833=DIRECTION('',(3.46944695195362E-16,1.,0.));
#834=DIRECTION('',(-3.46944695195362E-16,-1.,0.));
#835=DIRECTION('',(0.,0.0871557427476582,-0.996194698091746));
#836=DIRECTION('',(0.,0.0871557427476582,-0.996194698091746));
#837=DIRECTION('',(0.,-0.996194698091745,-0.0871557427476581));
#838=DIRECTION('',(0.,0.0871557427476582,-0.996194698091746));
#839=DIRECTION('',(-1.,0.,0.));
#840=DIRECTION('',(0.,0.0871557427476582,-0.996194698091746));
#841=DIRECTION('',(1.,-3.46944695195362E-16,-3.03537277000512E-17));
#842=DIRECTION('',(3.46944695195362E-16,1.,0.));
#843=DIRECTION('',(1.,-3.46944695195362E-16,-3.03537277000512E-17));
#844=DIRECTION('',(3.46944695195362E-16,1.,0.));
#845=DIRECTION('',(-3.46944695195362E-16,-1.,0.));
#846=DIRECTION('',(0.,0.0871557427476582,-0.996194698091746));
#847=DIRECTION('',(0.,-0.996194698091745,-0.0871557427476581));
#848=DIRECTION('',(0.,0.0871557427476582,-0.996194698091746));
#849=DIRECTION('',(-1.,0.,0.));
#850=DIRECTION('',(0.,0.,1.));
#851=DIRECTION('',(1.,0.,0.));
#852=DIRECTION('',(-2.31296463463574E-16,1.,0.));
#853=DIRECTION('',(-1.,-2.31296463463574E-16,0.));
#854=DIRECTION('',(-1.,-2.31296463463574E-16,0.));
#855=DIRECTION('',(0.,0.,1.));
#856=DIRECTION('',(-1.,-2.31296463463574E-16,0.));
#857=DIRECTION('',(0.,0.,1.));
#858=DIRECTION('',(1.,0.,0.));
#859=DIRECTION('',(0.,0.,-1.));
#860=DIRECTION('',(0.,1.,0.));
#861=DIRECTION('',(0.,1.,0.));
#862=DIRECTION('',(0.,0.,1.));
#863=DIRECTION('',(-1.54197642309049E-16,1.,0.));
#864=DIRECTION('',(-1.,-1.54197642309049E-16,0.));
#865=DIRECTION('',(-1.,-1.54197642309049E-16,0.));
#866=DIRECTION('',(-1.,-1.54197642309049E-16,0.));
#867=DIRECTION('',(0.,0.,1.));
#868=DIRECTION('',(1.,0.,0.));
#869=DIRECTION('',(0.,0.,-1.));
#870=DIRECTION('',(0.,1.,0.));
#871=DIRECTION('',(0.,1.,0.));
#872=DIRECTION('',(0.,0.,1.));
#873=DIRECTION('',(1.,0.,0.));
#874=DIRECTION('',(-1.7347234759768E-16,-1.,0.));
#875=DIRECTION('',(-1.,0.,0.));
#876=DIRECTION('',(-1.7347234759768E-16,-1.,0.));
#877=DIRECTION('',(-1.,1.7347234759768E-16,0.));
#878=DIRECTION('',(0.,0.,1.));
#879=DIRECTION('',(1.,0.,0.));
#880=DIRECTION('',(0.,0.,1.));
#881=DIRECTION('',(1.,0.,0.));
#882=DIRECTION('',(2.89120579329468E-16,-1.,0.));
#883=DIRECTION('',(1.,2.31296463463574E-16,0.));
#884=DIRECTION('',(0.,-1.,0.));
#885=DIRECTION('',(0.,0.,1.));
#886=DIRECTION('',(1.,0.,0.));
#887=DIRECTION('',(0.,0.,1.));
#888=DIRECTION('',(1.,0.,0.));
#889=DIRECTION('',(0.,0.,1.));
#890=DIRECTION('',(1.,0.,0.));
#891=DIRECTION('',(0.,0.,1.));
#892=DIRECTION('',(1.,0.,0.));
#893=DIRECTION('',(0.,0.,1.));
#894=DIRECTION('',(1.,0.,0.));
#895=DIRECTION('',(0.,0.,1.));
#896=DIRECTION('',(1.,0.,0.));
#897=DIRECTION('',(0.,0.,1.));
#898=DIRECTION('',(1.,0.,0.));
#899=DIRECTION('',(0.,-1.,0.));
#900=DIRECTION('',(1.,2.31296463463574E-16,0.));
#901=DIRECTION('',(2.89120579329468E-16,-1.,0.));
#902=DIRECTION('',(-1.,3.46944695195362E-16,3.03537277000512E-17));
#903=DIRECTION('',(-3.46944695195362E-16,-1.,0.));
#904=DIRECTION('',(-1.,3.46944695195362E-16,3.03537277000512E-17));
#905=DIRECTION('',(-3.46944695195362E-16,-1.,0.));
#906=DIRECTION('',(0.,0.,1.));
#907=DIRECTION('',(1.,0.,0.));
#908=DIRECTION('',(0.,0.,1.));
#909=DIRECTION('',(1.,0.,0.));
#910=DIRECTION('',(-1.,-2.89120579329468E-16,0.));
#911=DIRECTION('',(2.89120579329468E-16,-1.,0.));
#912=DIRECTION('',(0.,0.,1.));
#913=DIRECTION('',(-1.,0.,0.));
#914=DIRECTION('',(0.,0.,1.));
#915=DIRECTION('',(0.,0.,1.));
#916=DIRECTION('',(2.31296463463574E-16,-1.,0.));
#917=DIRECTION('',(1.,2.31296463463574E-16,0.));
#918=DIRECTION('',(0.,-1.,0.));
#919=DIRECTION('',(0.,0.,-1.));
#920=DIRECTION('',(0.,0.,-1.));
#921=DIRECTION('',(-1.,0.,0.));
#922=DIRECTION('',(0.,0.,-1.));
#923=DIRECTION('',(1.,-1.7347234759768E-16,0.));
#924=DIRECTION('',(1.7347234759768E-16,1.,0.));
#925=DIRECTION('',(0.,0.,-1.));
#926=DIRECTION('',(-1.7347234759768E-16,-1.,0.));
#927=DIRECTION('',(-1.7347234759768E-16,-1.,0.));
#928=DIRECTION('',(1.,-1.7347234759768E-16,0.));
#929=DIRECTION('',(0.,0.,-1.));
#930=DIRECTION('',(-1.,1.7347234759768E-16,0.));
#931=DIRECTION('',(1.,-1.7347234759768E-16,0.));
#932=DIRECTION('',(1.7347234759768E-16,1.,0.));
#933=DIRECTION('',(-1.7347234759768E-16,-1.,0.));
#934=DIRECTION('',(0.,0.,-1.));
#935=DIRECTION('',(1.,0.,0.));
#936=DIRECTION('',(0.,0.,1.));
#937=DIRECTION('',(1.,0.,0.));
#938=DIRECTION('',(0.,0.,1.));
#939=DIRECTION('',(1.,0.,0.));
#940=DIRECTION('',(0.,0.,1.));
#941=DIRECTION('',(1.,0.,0.));
#942=DIRECTION('',(0.,0.,1.));
#943=DIRECTION('',(1.,0.,0.));
#944=DIRECTION('',(0.,0.,1.));
#945=DIRECTION('',(1.,0.,0.));
#946=DIRECTION('',(0.,0.,1.));
#947=DIRECTION('',(1.,0.,0.));
#948=DIRECTION('',(0.,0.,1.));
#949=DIRECTION('',(1.,0.,0.));
#950=DIRECTION('',(0.,0.,1.));
#951=DIRECTION('',(1.,0.,0.));
#952=CARTESIAN_POINT('',(0.,0.,0.));
#953=CARTESIAN_POINT('',(0.0065,-0.0355,0.015));
#954=CARTESIAN_POINT('',(0.0065,-0.0355,-0.012));
#955=CARTESIAN_POINT('',(0.0065,-0.033,-0.012));
#956=CARTESIAN_POINT('',(0.0065,-0.038,-0.012));
#957=CARTESIAN_POINT('',(0.0065,-0.038,0.015));
#958=CARTESIAN_POINT('',(0.0065,-0.038,0.));
#959=CARTESIAN_POINT('',(0.0065,0.,0.));
#960=CARTESIAN_POINT('',(0.0065,-0.033,0.));
#961=CARTESIAN_POINT('',(0.0065,-0.033,0.015));
#962=CARTESIAN_POINT('',(0.00325,-0.038,0.015));
#963=CARTESIAN_POINT('',(-0.00325,-0.038,-0.012));
#964=CARTESIAN_POINT('',(-0.0065,-0.038,-0.012));
#965=CARTESIAN_POINT('',(-0.0065,-0.038,0.015));
#966=CARTESIAN_POINT('',(-0.0065,-0.038,0.));
#967=CARTESIAN_POINT('',(0.,-0.038,0.));
#968=CARTESIAN_POINT('',(-0.0065,-0.0355,0.015));
#969=CARTESIAN_POINT('',(-0.0065,-0.0355,-0.012));
#970=CARTESIAN_POINT('',(-0.0065,-0.033,-0.012));
#971=CARTESIAN_POINT('',(-0.0065,-0.033,0.015));
#972=CARTESIAN_POINT('',(-0.0065,-0.033,0.));
#973=CARTESIAN_POINT('',(-0.0065,0.,0.));
#974=CARTESIAN_POINT('',(5.63785129692462E-18,-0.033,0.015));
#975=CARTESIAN_POINT('',(5.63785129692462E-18,-0.033,-0.012));
#976=CARTESIAN_POINT('',(0.,-0.033,0.));
#977=CARTESIAN_POINT('',(-0.0375,-0.0175,-0.015));
#978=CARTESIAN_POINT('',(0.03,-0.0175,-0.015));
#979=CARTESIAN_POINT('',(0.03,-0.0175,-0.015));
#980=CARTESIAN_POINT('',(0.03,-0.0175,0.));
#981=CARTESIAN_POINT('',(-0.0375,-0.0175,-0.015));
#982=CARTESIAN_POINT('',(0.045,-0.0175,-0.015));
#983=CARTESIAN_POINT('',(0.045,-0.0175,-0.015));
#984=CARTESIAN_POINT('',(0.045,-0.0175,0.));
#985=CARTESIAN_POINT('',(-0.0375,-0.0175,0.));
#986=CARTESIAN_POINT('',(0.,-0.00392200842364462,0.0448287614141286));
#987=CARTESIAN_POINT('',(0.0125,-0.00392200842364462,0.0448287614141286));
#988=CARTESIAN_POINT('',(0.0125,0.00857799157635539,0.0448287614141286));
#989=CARTESIAN_POINT('',(0.0125,-0.0164220084236446,0.0448287614141286));
#990=CARTESIAN_POINT('',(3.46944695195361E-18,0.00857799157635539,0.0448287614141286));
#991=CARTESIAN_POINT('',(-0.0125,0.00857799157635539,0.0448287614141286));
#992=CARTESIAN_POINT('',(-0.0125,-0.00392200842364462,0.0448287614141286));
#993=CARTESIAN_POINT('',(-0.0125,-0.0164220084236446,0.0448287614141286));
#994=CARTESIAN_POINT('',(-5.20417042793042E-18,-0.0164220084236446,0.0448287614141286));
#995=CARTESIAN_POINT('',(3.46944695195361E-18,0.00355889238863865,0.0448287614141286));
#996=CARTESIAN_POINT('',(0.0075,0.00355889238863865,0.0448287614141286));
#997=CARTESIAN_POINT('',(-0.0075,0.00355889238863865,0.0448287614141286));
#998=CARTESIAN_POINT('',(0.0075,-0.00392200842364462,0.0448287614141286));
#999=CARTESIAN_POINT('',(0.0075,-0.0114029092359279,0.0448287614141286));
#1000=CARTESIAN_POINT('',(-5.20417042793042E-18,-0.0114029092359279,0.0448287614141286));
#1001=CARTESIAN_POINT('',(-0.0075,-0.0114029092359279,0.0448287614141286));
#1002=CARTESIAN_POINT('',(-0.0075,-0.00392200842364462,0.0448287614141286));
#1003=CARTESIAN_POINT('',(0.0125,-0.00392200842364462,0.0448287614141286));
#1004=CARTESIAN_POINT('',(0.0125,-0.00277155261937553,0.0316789913993175));
#1005=CARTESIAN_POINT('',(0.0125,-0.00739655261937553,0.0316789913993175));
#1006=CARTESIAN_POINT('',(0.0125,0.,0.));
#1007=CARTESIAN_POINT('',(0.0125,0.0125,0.));
#1008=CARTESIAN_POINT('',(0.0125,-0.0125,0.));
#1009=CARTESIAN_POINT('',(0.0125,0.00857799157635539,0.0448287614141286));
#1010=CARTESIAN_POINT('',(0.0125,-0.0164220084236446,0.0448287614141286));
#1011=CARTESIAN_POINT('',(3.46944695195361E-18,0.00857799157635539,0.0448287614141286));
#1012=CARTESIAN_POINT('',(3.46944695195361E-18,0.0125,0.));
#1013=CARTESIAN_POINT('',(-0.0125,0.0125,0.));
#1014=CARTESIAN_POINT('',(-0.0125,0.00857799157635539,0.0448287614141286));
#1015=CARTESIAN_POINT('',(-0.0125,-0.00392200842364462,0.0448287614141286));
#1016=CARTESIAN_POINT('',(-0.0125,-0.00277155261937552,0.0316789913993175));
#1017=CARTESIAN_POINT('',(-0.0125,0.00185344738062448,0.0316789913993175));
#1018=CARTESIAN_POINT('',(-0.0125,0.,0.));
#1019=CARTESIAN_POINT('',(-0.0125,-0.0125,0.));
#1020=CARTESIAN_POINT('',(-0.0125,-0.0164220084236446,0.0448287614141286));
#1021=CARTESIAN_POINT('',(-5.20417042793042E-18,-0.0164220084236446,0.0448287614141286));
#1022=CARTESIAN_POINT('',(-5.20417042793042E-18,-0.0125,0.));
#1023=CARTESIAN_POINT('',(0.0075,-0.00392200842364462,0.0448287614141286));
#1024=CARTESIAN_POINT('',(0.0075,-0.00277155261937553,0.0316789913993175));
#1025=CARTESIAN_POINT('',(0.0075,0.00185344738062447,0.0316789913993175));
#1026=CARTESIAN_POINT('',(0.0075,-0.00392200842364462,0.005));
#1027=CARTESIAN_POINT('',(0.0075,0.00704345749465365,0.005));
#1028=CARTESIAN_POINT('',(0.0075,-0.00791834412991289,0.005));
#1029=CARTESIAN_POINT('',(0.0075,-0.0113460833895122,0.0441792390174486));
#1030=CARTESIAN_POINT('',(0.0075,0.00350206654222296,0.0454782838108086));
#1031=CARTESIAN_POINT('',(3.46944695195361E-18,0.00359701808589666,0.0443929827003903));
#1032=CARTESIAN_POINT('',(3.46944695195361E-18,0.00704345749465365,0.005));
#1033=CARTESIAN_POINT('',(-0.0075,0.00704345749465365,0.005));
#1034=CARTESIAN_POINT('',(-0.0075,0.00350206654222296,0.0454782838108086));
#1035=CARTESIAN_POINT('',(-0.0075,-0.00392200842364462,0.0448287614141286));
#1036=CARTESIAN_POINT('',(-0.0075,-0.00277155261937552,0.0316789913993175));
#1037=CARTESIAN_POINT('',(-0.0075,0.00185344738062448,0.0316789913993175));
#1038=CARTESIAN_POINT('',(-0.0075,-0.00392200842364462,0.005));
#1039=CARTESIAN_POINT('',(-0.0075,-0.00791834412991289,0.005));
#1040=CARTESIAN_POINT('',(-0.0075,-0.0113460833895122,0.0441792390174486));
#1041=CARTESIAN_POINT('',(-5.20417042793042E-18,-0.0114410349331859,0.0452645401278668));
#1042=CARTESIAN_POINT('',(-5.20417042793042E-18,-0.00791834412991289,0.005));
#1043=CARTESIAN_POINT('',(0.,0.,0.005));
#1044=CARTESIAN_POINT('',(-0.0375,-0.0175,-0.015));
#1045=CARTESIAN_POINT('',(-0.0375,-0.0175,-0.015));
#1046=CARTESIAN_POINT('',(-0.03,-0.0175,-0.015));
#1047=CARTESIAN_POINT('',(-0.045,-0.0175,-0.015));
#1048=CARTESIAN_POINT('',(-0.03,-0.0175,-0.015));
#1049=CARTESIAN_POINT('',(-0.03,-0.0175,0.));
#1050=CARTESIAN_POINT('',(-0.0375,-0.0175,0.));
#1051=CARTESIAN_POINT('',(-0.045,-0.0175,0.));
#1052=CARTESIAN_POINT('',(-0.045,-0.0175,-0.015));
#1053=CARTESIAN_POINT('',(0.045,1.38777878078145E-17,-0.015));
#1054=CARTESIAN_POINT('',(0.045,1.38777878078145E-17,0.));
#1055=CARTESIAN_POINT('',(0.045,0.0175,0.));
#1056=CARTESIAN_POINT('',(0.045,1.38777878078145E-17,-0.015));
#1057=CARTESIAN_POINT('',(0.045,0.0175,-0.015));
#1058=CARTESIAN_POINT('',(0.045,0.0175,-0.015));
#1059=CARTESIAN_POINT('',(0.,0.0175,-0.015));
#1060=CARTESIAN_POINT('',(0.,0.0175,0.));
#1061=CARTESIAN_POINT('',(-0.045,0.0175,0.));
#1062=CARTESIAN_POINT('',(0.,0.0175,-0.015));
#1063=CARTESIAN_POINT('',(-0.045,0.0175,-0.015));
#1064=CARTESIAN_POINT('',(-0.045,0.0175,-0.015));
#1065=CARTESIAN_POINT('',(-0.045,3.46944695195361E-18,-0.015));
#1066=CARTESIAN_POINT('',(-0.045,3.46944695195361E-18,0.));
#1067=CARTESIAN_POINT('',(-0.045,3.46944695195361E-18,-0.015));
#1068=CARTESIAN_POINT('',(0.,0.,-0.015));
#1069=CARTESIAN_POINT('',(-0.02,-0.048,-0.015));
#1070=CARTESIAN_POINT('',(-0.02,-0.028,-0.015));
#1071=CARTESIAN_POINT('',(-0.02,-0.068,-0.015));
#1072=CARTESIAN_POINT('',(0.01,-0.068,-0.015));
#1073=CARTESIAN_POINT('',(0.02,-0.068,-0.015));
#1074=CARTESIAN_POINT('',(0.02,-0.048,-0.015));
#1075=CARTESIAN_POINT('',(0.02,-0.028,-0.015));
#1076=CARTESIAN_POINT('',(1.04083408558608E-17,-0.028,-0.015));
#1077=CARTESIAN_POINT('',(0.0363,0.,-0.015));
#1078=CARTESIAN_POINT('',(0.03805,0.,-0.015));
#1079=CARTESIAN_POINT('',(-0.0363,-5.5973744158185E-18,-0.015));
#1080=CARTESIAN_POINT('',(-0.03455,-5.5973744158185E-18,-0.015));
#1081=CARTESIAN_POINT('',(0.03,-0.0475,-0.015));
#1082=CARTESIAN_POINT('',(0.03,-0.0775,-0.015));
#1083=CARTESIAN_POINT('',(6.93889390390723E-18,-0.0775,-0.015));
#1084=CARTESIAN_POINT('',(-0.03,-0.0775,-0.015));
#1085=CARTESIAN_POINT('',(-0.03,-0.0475,-0.015));
#1086=CARTESIAN_POINT('',(0.,0.,0.));
#1087=CARTESIAN_POINT('',(-0.01425,-0.03375,0.));
#1088=CARTESIAN_POINT('',(-0.01375,-0.03375,0.));
#1089=CARTESIAN_POINT('',(0.01425,-0.03375,0.));
#1090=CARTESIAN_POINT('',(0.01475,-0.03375,0.));
#1091=CARTESIAN_POINT('',(0.01425,-0.06225,0.));
#1092=CARTESIAN_POINT('',(0.01475,-0.06225,0.));
#1093=CARTESIAN_POINT('',(-0.01425,-0.06225,0.));
#1094=CARTESIAN_POINT('',(-0.01375,-0.06225,0.));
#1095=CARTESIAN_POINT('',(0.0363,0.,0.));
#1096=CARTESIAN_POINT('',(0.03805,0.,0.));
#1097=CARTESIAN_POINT('',(-0.0363,-5.5973744158185E-18,0.));
#1098=CARTESIAN_POINT('',(-0.03455,-5.5973744158185E-18,0.));
#1099=CARTESIAN_POINT('',(-0.03,-0.0475,0.));
#1100=CARTESIAN_POINT('',(-0.03,-0.0775,0.));
#1101=CARTESIAN_POINT('',(6.93889390390723E-18,-0.0775,0.));
#1102=CARTESIAN_POINT('',(0.03,-0.0775,0.));
#1103=CARTESIAN_POINT('',(0.03,-0.0475,0.));
#1104=CARTESIAN_POINT('',(0.0125,-0.00277155261937553,0.0316789913993175));
#1105=CARTESIAN_POINT('',(0.0125,-0.00277155261937553,0.0316789913993175));
#1106=CARTESIAN_POINT('',(-0.0363,-5.5973744158185E-18,-0.015));
#1107=CARTESIAN_POINT('',(0.0363,0.,-0.015));
#1108=CARTESIAN_POINT('',(0.03,-0.0475,-0.015));
#1109=CARTESIAN_POINT('',(0.03,-0.0775,-0.015));
#1110=CARTESIAN_POINT('',(-0.03,-0.0475,-0.015));
#1111=CARTESIAN_POINT('',(-0.03,-0.0775,-0.015));
#1112=CARTESIAN_POINT('',(6.93889390390723E-18,-0.0775,-0.015));
#1113=CARTESIAN_POINT('',(0.01,-0.068,-0.012));
#1114=CARTESIAN_POINT('',(-0.02,-0.068,-0.012));
#1115=CARTESIAN_POINT('',(-0.02,-0.068,-0.012));
#1116=CARTESIAN_POINT('',(0.01,-0.068,-0.012));
#1117=CARTESIAN_POINT('',(0.02,-0.068,-0.012));
#1118=CARTESIAN_POINT('',(0.02,-0.068,-0.012));
#1119=CARTESIAN_POINT('',(-0.02,-0.048,-0.012));
#1120=CARTESIAN_POINT('',(-0.02,-0.028,-0.012));
#1121=CARTESIAN_POINT('',(-0.02,-0.028,-0.012));
#1122=CARTESIAN_POINT('',(-0.02,-0.048,-0.012));
#1123=CARTESIAN_POINT('',(1.04083408558608E-17,-0.028,-0.012));
#1124=CARTESIAN_POINT('',(0.02,-0.028,-0.012));
#1125=CARTESIAN_POINT('',(0.02,-0.028,-0.012));
#1126=CARTESIAN_POINT('',(1.04083408558608E-17,-0.028,-0.012));
#1127=CARTESIAN_POINT('',(0.02,-0.048,-0.012));
#1128=CARTESIAN_POINT('',(0.02,-0.048,-0.012));
#1129=CARTESIAN_POINT('',(0.,-0.03,-0.012));
#1130=CARTESIAN_POINT('',(-0.01425,-0.03375,-0.012));
#1131=CARTESIAN_POINT('',(-0.01375,-0.03375,-0.012));
#1132=CARTESIAN_POINT('',(0.01425,-0.03375,-0.012));
#1133=CARTESIAN_POINT('',(0.01475,-0.03375,-0.012));
#1134=CARTESIAN_POINT('',(0.01425,-0.06225,-0.012));
#1135=CARTESIAN_POINT('',(0.01475,-0.06225,-0.012));
#1136=CARTESIAN_POINT('',(-0.01425,-0.06225,-0.012));
#1137=CARTESIAN_POINT('',(-0.01375,-0.06225,-0.012));
#1138=CARTESIAN_POINT('',(-0.01425,-0.06225,-0.015));
#1139=CARTESIAN_POINT('',(0.01425,-0.06225,-0.015));
#1140=CARTESIAN_POINT('',(0.01425,-0.03375,-0.015));
#1141=CARTESIAN_POINT('',(-0.01425,-0.03375,-0.015));
#1142=MECHANICAL_DESIGN_GEOMETRIC_PRESENTATION_REPRESENTATION('',(#707),
#1143);
#1143=(
GEOMETRIC_REPRESENTATION_CONTEXT(3)
GLOBAL_UNCERTAINTY_ASSIGNED_CONTEXT((#1144))
GLOBAL_UNIT_ASSIGNED_CONTEXT((#1147,#1146,#1145))
REPRESENTATION_CONTEXT('Part 2','TOP_LEVEL_ASSEMBLY_PART')
);
#1144=UNCERTAINTY_MEASURE_WITH_UNIT(LENGTH_MEASURE(1.E-8),#1147,
'DISTANCE_ACCURACY_VALUE','Maximum Tolerance applied to model');
#1145=(
NAMED_UNIT(*)
SI_UNIT($,.STERADIAN.)
SOLID_ANGLE_UNIT()
);
#1146=(
NAMED_UNIT(*)
PLANE_ANGLE_UNIT()
SI_UNIT($,.RADIAN.)
);
#1147=(
LENGTH_UNIT()
NAMED_UNIT(*)
SI_UNIT($,.METRE.)
);
#1148=PRODUCT_DEFINITION_SHAPE('','',#1149);
#1149=PRODUCT_DEFINITION('','',#1151,#1150);
#1150=PRODUCT_DEFINITION_CONTEXT('',#1157,'design');
#1151=PRODUCT_DEFINITION_FORMATION_WITH_SPECIFIED_SOURCE('','',#1153,
 .NOT_KNOWN.);
#1152=PRODUCT_RELATED_PRODUCT_CATEGORY('','',(#1153));
#1153=PRODUCT('Part 2','Part 2','Part 2',(#1155));
#1154=PRODUCT_CATEGORY('','');
#1155=PRODUCT_CONTEXT('',#1157,'mechanical');
#1156=APPLICATION_PROTOCOL_DEFINITION('international standard',
'ap242_managed_model_based_3d_engineering',2020,#1157);
#1157=APPLICATION_CONTEXT('managed model based 3d engineering');
ENDSEC;
END-ISO-10303-21;
